<?xml version="1.0" standalone="no"?>
<!DOCTYPE svg PUBLIC "-//W3C//DTD SVG 20010904//EN"
 "http://www.w3.org/TR/2001/REC-SVG-20010904/DTD/svg10.dtd">
<svg version="1.0" xmlns="http://www.w3.org/2000/svg"
 width="512.000000pt" height="512.000000pt" viewBox="0 0 512.000000 512.000000"
 preserveAspectRatio="xMidYMid meet">
<metadata>
Created by potrace 1.14, written by Peter Selinger 2001-2017
</metadata>
<g transform="translate(0.000000,512.000000) scale(0.100000,-0.100000)"
fill="#000000" stroke="none">
<path d="M0 2560 l0 -2560 2560 0 2560 0 0 2560 0 2560 -2560 0 -2560 0 0
-2560z m3910 1679 c99 -21 142 -94 156 -262 25 -315 -225 -830 -591 -1216 -91
-96 -228 -210 -340 -284 -49 -32 -91 -60 -93 -62 -2 -2 3 -16 11 -32 31 -59
80 -216 138 -435 67 -256 107 -375 149 -441 55 -86 126 -97 225 -35 74 46 263
218 390 354 121 129 164 161 194 144 40 -21 55 -68 55 -175 1 -93 -1 -105 -35
-180 -103 -233 -312 -446 -568 -578 -179 -93 -330 -127 -476 -107 -265 37
-365 197 -430 690 -49 374 -68 505 -87 592 l-21 97 -55 16 c-59 18 -143 67
-179 106 -32 35 -53 92 -53 142 0 63 32 105 105 142 57 28 67 30 180 30 102 0
127 -3 166 -21 l47 -22 68 82 c80 96 193 265 262 394 80 146 145 291 302 666
112 268 152 354 172 369 19 15 51 22 115 27 135 11 138 11 193 -1z m-1379
-159 c65 -34 81 -70 75 -165 -6 -94 -35 -197 -72 -251 -18 -26 -32 -66 -41
-119 -24 -140 -68 -310 -188 -715 -242 -824 -319 -1186 -344 -1621 -9 -167
-18 -192 -89 -246 -61 -46 -156 -73 -307 -85 -217 -18 -238 3 -255 259 -16
230 10 476 85 830 102 474 297 1128 443 1483 l59 145 -65 3 c-36 2 -115 -4
-174 -13 -223 -33 -370 -93 -513 -210 -111 -91 -130 -101 -161 -80 -59 39 -82
119 -64 231 27 175 138 287 383 388 248 103 699 181 1065 185 105 1 128 -2
163 -19z"/>
</g>
</svg>
